<svg width="1003" height="1151" viewBox="0 0 1003 1151" fill="none" xmlns="http://www.w3.org/2000/svg">
<g clip-path="url(#clip0_52_7176)">
<g filter="url(#filter0_d_52_7176)">
<path d="M216.047 171.957L405.891 33.3149C475.61 -17.6005 570.131 -18.0334 640.313 32.2412L835.469 172.039C887.899 209.597 919 270.133 919 334.627V841.108C919 913.176 880.227 979.671 817.506 1015.17L622.177 1125.71C560.545 1160.59 485.062 1160.28 423.722 1124.89L234.051 1015.45C172.142 979.734 134 913.693 134 842.219V333.472C134 269.624 164.485 209.613 216.047 171.957Z" fill="#4E046D"/>
<path d="M216.047 171.957L405.891 33.3149C475.61 -17.6005 570.131 -18.0334 640.313 32.2412L835.469 172.039C887.899 209.597 919 270.133 919 334.627V841.108C919 913.176 880.227 979.671 817.506 1015.17L622.177 1125.71C560.545 1160.59 485.062 1160.28 423.722 1124.89L234.051 1015.45C172.142 979.734 134 913.693 134 842.219V333.472C134 269.624 164.485 209.613 216.047 171.957Z" stroke="white" stroke-width="50"/>
</g>
<path d="M837 751C581 1217.5 568.501 1124 459.001 1124C147.003 966 124.001 927.5 154 615C175.506 390.974 32.5916 314.5 533.09 221.5C753.728 221.5 837 525.944 837 751Z" fill="#F856BF"/>
<path d="M780 720.366C561.68 1099.27 562.107 1031.86 468.724 1031.86C202.648 903.524 154.464 903.524 180.047 649.702C198.387 467.741 77.2836 393.037 504.114 317.5C692.276 317.5 780 537.569 780 720.366Z" fill="#E3FF0C"/>
<path d="M662 693.607C528.342 939.184 528.603 895.49 471.433 895.49C308.539 812.315 279.04 812.315 294.702 647.808C305.93 529.875 231.789 481.457 493.1 432.5C608.295 432.5 662 575.132 662 693.607Z" fill="black"/>
</g>
<defs>
<filter id="filter0_d_52_7176" x="105" y="-30.1699" width="843" height="1214.82" filterUnits="userSpaceOnUse" color-interpolation-filters="sRGB">
<feFlood flood-opacity="0" result="BackgroundImageFix"/>
<feColorMatrix in="SourceAlpha" type="matrix" values="0 0 0 0 0 0 0 0 0 0 0 0 0 0 0 0 0 0 127 0" result="hardAlpha"/>
<feOffset dy="4"/>
<feGaussianBlur stdDeviation="2"/>
<feComposite in2="hardAlpha" operator="out"/>
<feColorMatrix type="matrix" values="0 0 0 0 0 0 0 0 0 0 0 0 0 0 0 0 0 0 0.25 0"/>
<feBlend mode="normal" in2="BackgroundImageFix" result="effect1_dropShadow_52_7176"/>
<feBlend mode="normal" in="SourceGraphic" in2="effect1_dropShadow_52_7176" result="shape"/>
</filter>
<clipPath id="clip0_52_7176">
<rect width="1003" height="1151" fill="white"/>
</clipPath>
</defs>
</svg>
