<svg width="96" height="23" viewBox="0 0 96 23" fill="none" xmlns="http://www.w3.org/2000/svg">
<path d="M36.3227 0.314941V2.81167H26.8259V4.17595H35.0593V6.62974H26.8259V8.07977H36.3227V10.5765H23.8242V0.315044L36.3227 0.314941Z" fill="#515151"/>
<path d="M46.6252 0.314941L53.0694 10.5764H49.8304L48.4652 8.38859H41.9616L40.5795 10.5764H37.3403L43.793 0.314941H46.6252ZM43.454 6.00335H46.9729L45.2176 3.20634L43.454 6.00335Z" fill="#515151"/>
<path d="M68.103 0.314941V2.81167H58.1991C57.8938 2.80597 57.6281 2.90606 57.4021 3.11194C57.1872 3.30654 57.0799 3.54954 57.0799 3.84128V7.05016C57.0799 7.3304 57.1902 7.5735 57.4106 7.77939C57.631 7.96248 57.8939 8.06258 58.1991 8.07977H65.4574V6.80135H62.0912V4.41621H68.4506V10.5765H57.4106C56.4948 10.5765 55.7091 10.2792 55.0534 9.68421C54.4089 9.08935 54.0868 8.3715 54.0868 7.53068V3.3694C54.1038 2.52299 54.4287 1.8023 55.0618 1.20734C55.7233 0.612477 56.5061 0.315044 57.4106 0.315044L68.103 0.314941Z" fill="#515151"/>
<path d="M72.9786 0.314941V8.07967H81.9752V10.5764H69.9771V0.314941H72.9786Z" fill="#515151"/>
<path d="M96.0001 0.314941V2.81167H86.5033V4.17595H94.7366V6.62974H86.5033V8.07977H96.0001V10.5765H83.5016V0.315044L96.0001 0.314941Z" fill="#515151"/>
<path d="M0.0367513 8.85635C0.821145 8.59836 1.76301 8.36348 2.849 8.19434C1.74108 8.22897 0.85774 8.32361 0.147181 8.44911C0.230984 8.21848 0.349137 7.98981 0.498403 7.76017C1.45981 7.60983 2.64177 7.52335 3.99359 7.57059C2.66693 7.35879 1.63182 7.29683 0.81765 7.31551C1.13811 6.91846 1.52989 6.58415 1.99068 6.28635C2.45134 6.43229 3.03917 6.54097 3.79664 6.56769C3.25887 6.43836 2.77529 6.26403 2.35209 6.0679C2.56099 5.94946 2.78146 5.83605 3.01483 5.7264C3.957 6.16069 4.79115 6.34721 5.65201 6.51298C6.46764 5.6384 7.80862 5.12852 8.94454 4.50514C9.68764 4.09735 9.50635 3.92123 9.06572 3.6295C8.34213 3.15039 8.08757 2.64906 8.13624 2.15537C8.87403 2.4774 9.78676 2.94589 11.3235 3.22047C9.97772 2.79506 8.78557 2.20637 8.53671 1.19728C9.47278 1.82888 10.7335 2.39119 12.1553 2.77587C10.9112 2.20637 9.38268 1.52698 9.31886 0.485746C10.1241 1.04551 11.2059 1.61916 13.2856 2.53607C11.8554 1.62929 10.5 1.0674 10.2955 0C11.6185 0.944869 13.2111 1.67086 14.7535 2.39556C15.9368 2.95162 15.2931 3.99753 14.8573 4.72316C14.4413 5.41577 14.309 6.31895 15.0741 6.86055C13.7045 7.15125 12.2386 7.49309 10.3779 7.32182C12.7381 7.94126 14.16 7.16196 16.8741 7.33953C16.8742 7.33953 16.8744 7.33956 16.8747 7.33956C18.5999 7.50964 19.9084 7.75195 20.026 8.43122C20.4692 8.51861 20.8863 8.67181 21 8.95821C18.9526 8.61186 17.4281 8.98662 16.5402 9.28103C15.6202 9.58611 15.0788 9.91596 14.7999 10.2797C14.4117 9.79428 14.2065 9.29695 14.4444 8.86042C13.6197 9.51982 14.3021 10.7387 14.7773 11.8652C15.3768 13.2364 16.3105 15.3568 14.3521 16.353C10.1901 18.47 5.96642 19.7885 1.13055 23C1.15109 21.9733 3.13437 19.6741 7.40139 17.3705C2.32123 19.2354 0.985257 20.906 0.453525 21.8088C0.595714 18.6716 2.61019 17.8342 7.08383 15.7331C2.74845 17.0771 1.04459 18.4083 0.236766 19.3244C0.65259 16.6135 3.44296 15.0677 6.63603 14.1927C4.23563 14.4354 3.21191 14.955 2.12976 15.6211C2.95252 14.1332 4.29816 13.9075 5.73201 13.2296C6.564 12.8362 7.18139 12.3426 6.56133 11.6436C5.74578 10.7242 4.58729 9.75225 4.67209 8.57417C3.04543 8.78585 1.26489 9.25125 0.117102 9.99532C-0.00791215 9.59869 -0.0296613 9.22302 0.0367513 8.85635Z" fill="#AD2828"/>
<path d="M24.445 15.6676C24.445 14.949 24.9459 14.412 25.5962 14.4195C25.8429 14.427 26.097 14.5027 26.2839 14.6238V14.9491C26.0895 14.8053 25.8653 14.7221 25.6336 14.7145C25.1328 14.707 24.7515 15.1305 24.7515 15.6978V16.2046H25.955V16.4844H24.7515V20.1077H24.445V16.4844H23.9517V16.2046H24.445V15.6676ZM27.0165 20.1077H26.71V14.4951H27.0165V20.1077Z" fill="#6C6D6D"/>
<path d="M29.5732 20.6746C29.334 21.2646 28.9527 21.5822 28.4968 21.5822C28.2128 21.5822 27.9585 21.5065 27.7567 21.3553L27.8913 21.083C28.0633 21.2039 28.2651 21.2646 28.4819 21.2646C28.8333 21.2646 29.1322 21.0149 29.3191 20.5536L29.4985 20.1074L27.8913 16.1665H28.2203L29.6555 19.7368L31.0534 16.1665H31.3824L29.5732 20.6746Z" fill="#6C6D6D"/>
<path d="M32.5709 15.032C32.5709 15.1909 32.4513 15.3119 32.3092 15.3119C32.1673 15.3119 32.0476 15.1909 32.0476 15.032C32.0476 14.8807 32.1673 14.7598 32.3092 14.7598C32.4513 14.7598 32.5709 14.8808 32.5709 15.032ZM32.1523 20.1076V16.1668H32.4588V20.1076H32.1523Z" fill="#6C6D6D"/>
<path d="M37.4375 17.702V20.1074H37.1235V17.7626C37.1235 16.9533 36.6526 16.4768 35.8527 16.4768C34.9556 16.4994 34.4024 17.0668 34.3352 17.9745V20.1075H34.0212V16.1667H34.3352V17.1727C34.5968 16.5222 35.15 16.1742 35.9275 16.1592C36.8768 16.159 37.4375 16.7413 37.4375 17.702Z" fill="#6C6D6D"/>
<path d="M42.1398 19.6766C42.1398 20.8414 41.3997 21.5826 40.256 21.5752C39.6355 21.56 39.1346 21.3483 38.6786 20.9322L38.8431 20.6976C39.2468 21.0833 39.6878 21.265 40.2485 21.28C41.2129 21.2875 41.8407 20.6598 41.8407 19.6765V18.9352C41.5717 19.563 40.9885 19.9488 40.2485 19.9488C39.202 19.9488 38.4469 19.1546 38.4469 18.0577C38.4469 16.9534 39.2019 16.1592 40.2411 16.1592C40.9886 16.1592 41.5642 16.5525 41.8408 17.1804V16.1668H42.1399V19.6766H42.1398ZM41.8407 18.0654C41.8407 17.1274 41.183 16.4466 40.2858 16.4466C39.3888 16.4466 38.7384 17.1274 38.7384 18.0654C38.7384 18.9957 39.3814 19.6765 40.2858 19.6765C41.183 19.6766 41.8407 18.9958 41.8407 18.0654Z" fill="#6C6D6D"/>
<path d="M48.2621 19.3285C47.9332 19.873 47.38 20.1151 46.7072 20.1151C45.9373 20.1151 45.4214 19.6235 45.4214 18.9579C45.4214 18.2997 45.9747 17.8988 46.8716 17.8988H48.2545V17.5131C48.2471 16.8474 47.8658 16.4466 47.0883 16.4466C46.6024 16.4466 46.1913 16.6433 45.7801 16.961L45.6306 16.7189C46.094 16.3785 46.5425 16.1592 47.1331 16.1592C48.0525 16.1592 48.5535 16.6735 48.5609 17.4904L48.5758 20.1075H48.2693L48.2621 19.3285ZM48.2621 18.8217V18.1786H46.9015C46.139 18.1786 45.7204 18.4435 45.7204 18.9502C45.7204 19.4721 46.1166 19.8276 46.752 19.8276C47.4771 19.8277 48.0229 19.51 48.2621 18.8217Z" fill="#6C6D6D"/>
<path d="M53.8836 18.1409C53.8836 19.2907 53.1061 20.1152 52.0072 20.1152C51.2447 20.1152 50.6466 19.7143 50.3551 19.0789V20.1077H50.0411V14.4951H50.3551V17.2031C50.6466 16.5601 51.2446 16.1593 52.0072 16.1593C53.0987 16.1592 53.8836 16.9836 53.8836 18.1409ZM53.5771 18.1409C53.5771 17.1652 52.9043 16.4542 51.9624 16.4542C51.0279 16.4542 50.3552 17.1652 50.3552 18.1409C50.3552 19.1168 51.0279 19.8202 51.9624 19.8202C52.9043 19.8202 53.5771 19.1168 53.5771 18.1409Z" fill="#6C6D6D"/>
<path d="M57.0534 16.4693L56.9189 16.7264C56.6497 16.5525 56.3059 16.4466 55.9321 16.4466C55.3864 16.4466 54.9603 16.6584 54.9603 17.1274C54.9603 18.1864 57.2328 17.6645 57.2328 19.0562C57.2328 19.7899 56.5825 20.1151 55.8798 20.1151C55.3342 20.1151 54.8108 19.9185 54.452 19.5706L54.5941 19.3285C54.9305 19.6462 55.4014 19.8277 55.8949 19.8277C56.4405 19.8277 56.9115 19.6083 56.9339 19.1091C56.9638 17.9972 54.6614 18.504 54.6614 17.1501C54.6614 16.4618 55.2519 16.1592 55.9397 16.1592C56.3732 16.1592 56.747 16.2801 57.0534 16.4693Z" fill="#6C6D6D"/>
<path d="M60.1186 19.8355C59.8718 20.0094 59.5952 20.1153 59.3037 20.1153C58.7506 20.1229 58.4216 19.7599 58.4216 19.0186V16.5377H57.8535V16.2654H58.4216V15.2896H58.7206V16.2654H60.0437V16.5377H58.7206V18.9808C58.7206 19.5406 58.9375 19.8129 59.3411 19.8052C59.5653 19.8052 59.7971 19.7221 59.999 19.5783L60.1186 19.8355Z" fill="#6C6D6D"/>
<path d="M61.3815 17.1576C61.6281 16.5223 62.1364 16.1743 62.8317 16.1592V16.4843C61.9719 16.4843 61.4488 17.0593 61.3815 17.9746V20.1076H61.0674V16.1668H61.3815V17.1576Z" fill="#6C6D6D"/>
<path d="M65.9716 19.3285C65.6426 19.873 65.0894 20.1151 64.4167 20.1151C63.6467 20.1151 63.1309 19.6235 63.1309 18.9579C63.1309 18.2997 63.684 17.8988 64.5811 17.8988H65.9641V17.5131C65.9567 16.8474 65.5754 16.4466 64.7979 16.4466C64.3119 16.4466 63.9007 16.6433 63.4896 16.961L63.3402 16.7189C63.8036 16.3785 64.2521 16.1592 64.8427 16.1592C65.7621 16.1592 66.263 16.6735 66.2704 17.4904L66.2854 20.1075H65.9789L65.9716 19.3285ZM65.9716 18.8217V18.1786H64.611C63.8485 18.1786 63.4299 18.4435 63.4299 18.9502C63.4299 19.4721 63.8261 19.8276 64.4614 19.8276C65.1867 19.8277 65.7324 19.51 65.9716 18.8217Z" fill="#6C6D6D"/>
<path d="M70.5912 16.7113L70.4117 16.9382C70.0977 16.6432 69.694 16.4616 69.2082 16.4616C68.2737 16.4616 67.601 17.1499 67.601 18.1333C67.601 19.1318 68.2737 19.82 69.2082 19.82C69.7316 19.82 70.18 19.6234 70.4789 19.2679L70.6658 19.4722C70.322 19.8806 69.8062 20.1151 69.2007 20.1151C68.1017 20.1151 67.2944 19.2982 67.2944 18.1409C67.2944 16.9835 68.1017 16.1592 69.2007 16.1592C69.7614 16.1592 70.2473 16.3634 70.5912 16.7113Z" fill="#6C6D6D"/>
<path d="M73.7238 19.8355C73.4771 20.0094 73.2005 20.1153 72.909 20.1153C72.3558 20.1229 72.0268 19.7599 72.0268 19.0186V16.5377H71.4587V16.2654H72.0268V15.2896H72.3259V16.2654H73.6489V16.5377H72.3259V18.9808C72.3259 19.5406 72.5427 19.8129 72.9463 19.8052C73.1705 19.8052 73.4023 19.7221 73.6042 19.5783L73.7238 19.8355Z" fill="#6C6D6D"/>
</svg>
